<svg xmlns="http://www.w3.org/2000/svg" viewBox="0 0 1600 720" width="1600" height="720">
<defs>
<linearGradient id="g" x1="0" y1="0" x2="0" y2="1"><stop offset="0" stop-color="#2a1934"/><stop offset=".62" stop-color="#4a2b57"/><stop offset="1" stop-color="#b0441c"/></linearGradient>
<radialGradient id="l" cx="0.5" cy="0.2" r=".7"><stop offset="0" stop-color="#e2b866" stop-opacity=".55"/><stop offset="1" stop-color="#e2b866" stop-opacity="0"/></radialGradient>
</defs>
<rect width="1600" height="720" fill="url(#g)"/><rect width="1600" height="720" fill="url(#l)"/>
<path d="M540.0 720 V320.0 A260.0 260.0 0 0 1 1060.0 320.0 V720" fill="none" stroke="#e2b866" stroke-width="2.5" stroke-opacity="0.5"/><g fill="#f4ece2" fill-opacity="0.14"><circle cx="53.727272727272734" cy="496.75" r="39.9"/><path d="M-46.022727272727266 720 C-46.022727272727266 601.25 -3.2727272727272663 553.75 53.727272727272734 553.75 C110.72727272727273 553.75 153.47727272727275 601.25 153.47727272727275 720 Z"/></g><g fill="#f4ece2" fill-opacity="0.14"><circle cx="246.6818181818182" cy="520.5" r="39.9"/><path d="M146.9318181818182 743.75 C146.9318181818182 625.0 189.6818181818182 577.5 246.6818181818182 577.5 C303.6818181818182 577.5 346.4318181818182 625.0 346.4318181818182 743.75 Z"/></g><g fill="#f4ece2" fill-opacity="0.14"><circle cx="344.6363636363636" cy="496.75" r="39.9"/><path d="M244.88636363636363 720 C244.88636363636363 601.25 287.6363636363636 553.75 344.6363636363636 553.75 C401.6363636363636 553.75 444.3863636363636 601.25 444.3863636363636 720 Z"/></g><g fill="#f4ece2" fill-opacity="0.14"><circle cx="537.590909090909" cy="520.5" r="39.9"/><path d="M437.840909090909 743.75 C437.840909090909 625.0 480.590909090909 577.5 537.590909090909 577.5 C594.590909090909 577.5 637.340909090909 625.0 637.340909090909 743.75 Z"/></g><g fill="#f4ece2" fill-opacity="0.14"><circle cx="635.5454545454545" cy="496.75" r="39.9"/><path d="M535.7954545454545 720 C535.7954545454545 601.25 578.5454545454545 553.75 635.5454545454545 553.75 C692.5454545454545 553.75 735.2954545454545 601.25 735.2954545454545 720 Z"/></g><g fill="#f4ece2" fill-opacity="0.14"><circle cx="828.5" cy="520.5" r="39.9"/><path d="M728.75 743.75 C728.75 625.0 771.5 577.5 828.5 577.5 C885.5 577.5 928.25 625.0 928.25 743.75 Z"/></g><g fill="#f4ece2" fill-opacity="0.14"><circle cx="926.4545454545455" cy="496.75" r="39.9"/><path d="M826.7045454545455 720 C826.7045454545455 601.25 869.4545454545455 553.75 926.4545454545455 553.75 C983.4545454545455 553.75 1026.2045454545455 601.25 1026.2045454545455 720 Z"/></g><g fill="#f4ece2" fill-opacity="0.14"><circle cx="1119.409090909091" cy="520.5" r="39.9"/><path d="M1019.659090909091 743.75 C1019.659090909091 625.0 1062.409090909091 577.5 1119.409090909091 577.5 C1176.409090909091 577.5 1219.159090909091 625.0 1219.159090909091 743.75 Z"/></g><g fill="#f4ece2" fill-opacity="0.14"><circle cx="1217.3636363636363" cy="496.75" r="39.9"/><path d="M1117.6136363636363 720 C1117.6136363636363 601.25 1160.3636363636363 553.75 1217.3636363636363 553.75 C1274.3636363636363 553.75 1317.1136363636363 601.25 1317.1136363636363 720 Z"/></g><g fill="#f4ece2" fill-opacity="0.14"><circle cx="1410.3181818181818" cy="520.5" r="39.9"/><path d="M1310.5681818181818 743.75 C1310.5681818181818 625.0 1353.3181818181818 577.5 1410.3181818181818 577.5 C1467.3181818181818 577.5 1510.0681818181818 625.0 1510.0681818181818 743.75 Z"/></g><g fill="#f4ece2" fill-opacity="0.14"><circle cx="1508.2727272727273" cy="496.75" r="39.9"/><path d="M1408.5227272727273 720 C1408.5227272727273 601.25 1451.2727272727273 553.75 1508.2727272727273 553.75 C1565.2727272727273 553.75 1608.0227272727273 601.25 1608.0227272727273 720 Z"/></g>
<text x="80" y="59" font-family="system-ui, sans-serif" font-size="23" fill="#f4ece2" fill-opacity=".82">Photograph to come · Breakthrough Prayer Night</text>
</svg>
